<svg width="123" height="165" viewBox="0 0 123 165" fill="none" xmlns="http://www.w3.org/2000/svg">
<rect x="8" y="10" width="107" height="144" fill="white"/>
<path d="M114.781 11.0657L114.781 10.8896L117.28 10.8896L117.28 12.2568L117.121 12.2568L117.121 11.0657L116.056 11.0657L116.056 12.1919L115.899 12.1919L115.899 11.0657L114.781 11.0657ZM117.28 13.7816C117.28 13.9798 117.258 14.145 117.215 14.2772C117.172 14.4105 117.1 14.5108 117.001 14.578C116.902 14.6452 116.768 14.6788 116.6 14.6788C116.473 14.6788 116.364 14.6555 116.273 14.6087C116.183 14.5632 116.109 14.4999 116.051 14.419C115.993 14.3382 115.948 14.2447 115.918 14.1388L114.781 14.8241L114.781 14.6156L115.868 13.9713L115.868 13.3509L114.781 13.3509L114.781 13.1749L117.28 13.1749L117.28 13.7816ZM117.124 13.7645L117.124 13.3509L116.024 13.3509L116.024 13.8482C116.024 14.0522 116.073 14.2111 116.171 14.325C116.269 14.4401 116.409 14.4977 116.593 14.4977C116.794 14.4977 116.933 14.4373 117.01 14.3165C117.086 14.1957 117.124 14.0117 117.124 13.7645ZM116.034 17.8835C115.844 17.8835 115.67 17.8601 115.513 17.8134C115.355 17.7667 115.22 17.6966 115.106 17.6032C114.992 17.5098 114.904 17.393 114.841 17.2529C114.778 17.1139 114.747 16.9515 114.747 16.7658C114.747 16.579 114.778 16.4155 114.841 16.2753C114.904 16.1352 114.992 16.0184 115.106 15.925C115.221 15.8327 115.357 15.7632 115.514 15.7165C115.673 15.6698 115.847 15.6464 116.037 15.6464C116.29 15.6464 116.513 15.6892 116.706 15.7746C116.898 15.8612 117.049 15.9882 117.157 16.1557C117.265 16.3243 117.319 16.5323 117.319 16.7795C117.319 17.0165 117.267 17.217 117.164 17.3811C117.061 17.5463 116.913 17.671 116.721 17.7553C116.53 17.8408 116.301 17.8835 116.034 17.8835ZM116.036 15.831C115.812 15.831 115.615 15.8646 115.444 15.9318C115.275 15.9991 115.142 16.1022 115.046 16.2412C114.95 16.3802 114.903 16.5556 114.903 16.7675C114.903 16.9817 114.95 17.1577 115.044 17.2956C115.139 17.4335 115.271 17.5354 115.441 17.6015C115.611 17.6676 115.808 17.7006 116.034 17.7006C116.391 17.7006 116.667 17.6226 116.865 17.4665C117.062 17.3116 117.16 17.0826 117.16 16.7795C117.16 16.5664 117.113 16.3893 117.018 16.248C116.924 16.1079 116.792 16.003 116.624 15.9335C116.455 15.8652 116.259 15.831 116.036 15.831ZM114.781 20.8011L114.781 20.6216L116.991 19.1451L116.991 19.1365C116.929 19.1388 116.867 19.1405 116.803 19.1417C116.74 19.1439 116.675 19.1456 116.608 19.1468C116.542 19.1491 116.474 19.1502 116.403 19.1502L114.781 19.1502L114.781 18.9827L117.28 18.9827L117.28 19.1639L115.077 20.6353L115.077 20.6438C115.127 20.6427 115.185 20.641 115.251 20.6387C115.317 20.6376 115.385 20.6359 115.455 20.6336C115.524 20.6325 115.59 20.6319 115.651 20.6319L117.28 20.6319L117.28 20.8011L114.781 20.8011ZM114.781 22.6864L114.781 22.5087L117.121 22.5087L117.121 21.6986L117.28 21.6986L117.28 23.4965L117.121 23.4965L117.121 22.6864L114.781 22.6864ZM114.781 25.7595L114.781 24.394L117.28 24.394L117.28 25.7595L117.121 25.7595L117.121 24.5701L116.174 24.5701L116.174 25.6929L116.015 25.6929L116.015 24.5701L114.94 24.5701L114.94 25.7595L114.781 25.7595ZM114.781 28.672L114.781 28.4925L116.991 27.016L116.991 27.0074C116.929 27.0097 116.867 27.0114 116.803 27.0125C116.74 27.0148 116.675 27.0165 116.608 27.0177C116.542 27.02 116.474 27.0211 116.403 27.0211L114.781 27.0211L114.781 26.8536L117.28 26.8536L117.28 27.0348L115.077 28.5062L115.077 28.5147C115.127 28.5136 115.185 28.5119 115.251 28.5096C115.317 28.5085 115.385 28.5068 115.455 28.5045C115.524 28.5034 115.59 28.5028 115.651 28.5028L117.28 28.5028L117.28 28.672L114.781 28.672ZM116.054 31.8049C115.775 31.8049 115.541 31.7553 115.352 31.6562C115.163 31.5582 115.021 31.4124 114.925 31.2187C114.829 31.0262 114.781 30.7875 114.781 30.5026L114.781 29.9045L117.28 29.9045L117.28 30.5812C117.28 30.8479 117.233 31.0717 117.14 31.2529C117.046 31.434 116.908 31.5713 116.726 31.6647C116.545 31.7582 116.321 31.8049 116.054 31.8049ZM116.048 31.6203C116.286 31.6203 116.485 31.5816 116.644 31.5041C116.804 31.4266 116.923 31.3081 117.003 31.1486C117.084 30.9891 117.124 30.7869 117.124 30.5419L117.124 30.0805L114.937 30.0805L114.937 30.4941C114.937 30.8712 115.029 31.1532 115.214 31.34C115.399 31.5269 115.677 31.6203 116.048 31.6203ZM116.054 36.2353C115.775 36.2353 115.541 36.1857 115.352 36.0866C115.163 35.9886 115.021 35.8428 114.925 35.6491C114.829 35.4565 114.781 35.2178 114.781 34.933L114.781 34.3349L117.28 34.3349L117.28 35.0116C117.28 35.2782 117.233 35.5021 117.14 35.6833C117.046 35.8644 116.908 36.0017 116.726 36.0951C116.545 36.1885 116.321 36.2353 116.054 36.2353ZM116.048 36.0507C116.286 36.0507 116.485 36.0119 116.644 35.9345C116.804 35.857 116.923 35.7385 117.003 35.579C117.084 35.4195 117.124 35.2173 117.124 34.9723L117.124 34.5109L114.937 34.5109L114.937 34.9245C114.937 35.3016 115.029 35.5836 115.214 35.7704C115.399 35.9573 115.677 36.0507 116.048 36.0507ZM114.781 38.6965L114.781 37.3311L117.28 37.3311L117.28 38.6965L117.121 38.6965L117.121 37.5071L116.174 37.5071L116.174 38.6299L116.015 38.6299L116.015 37.5071L114.94 37.5071L114.94 38.6965L114.781 38.6965ZM115.426 41.1664C115.276 41.1664 115.151 41.1288 115.05 41.0536C114.949 40.9784 114.874 40.8764 114.822 40.7477C114.772 40.6189 114.747 40.4731 114.747 40.3102C114.747 40.2088 114.752 40.1165 114.762 40.0333C114.772 39.9513 114.784 39.8766 114.8 39.8094C114.816 39.7433 114.834 39.683 114.855 39.6283L115.031 39.6283C114.997 39.7171 114.966 39.8197 114.94 39.9359C114.915 40.0532 114.903 40.1808 114.903 40.3187C114.903 40.4486 114.921 40.5637 114.959 40.6639C114.997 40.7653 115.054 40.8451 115.13 40.9032C115.206 40.9613 115.302 40.9903 115.419 40.9903C115.521 40.9903 115.605 40.9658 115.67 40.9168C115.736 40.869 115.792 40.7966 115.839 40.6998C115.887 40.603 115.935 40.4811 115.984 40.3341C116.02 40.2315 116.057 40.1381 116.095 40.0538C116.135 39.9706 116.181 39.8994 116.232 39.8402C116.285 39.7809 116.347 39.7354 116.42 39.7035C116.494 39.6727 116.581 39.6573 116.682 39.6573C116.819 39.6573 116.935 39.6921 117.029 39.7616C117.123 39.8322 117.194 39.9273 117.242 40.047C117.291 40.1677 117.316 40.3033 117.316 40.4537C117.316 40.5733 117.304 40.6867 117.281 40.7938C117.26 40.902 117.227 41.0063 117.182 41.1065L117.03 41.045C117.074 40.9448 117.105 40.8445 117.126 40.7442C117.146 40.644 117.157 40.5449 117.157 40.4469C117.157 40.3295 117.139 40.2247 117.104 40.1324C117.07 40.0413 117.018 39.9689 116.948 39.9154C116.879 39.8618 116.791 39.8351 116.685 39.8351C116.576 39.8351 116.487 39.8596 116.42 39.9085C116.353 39.9587 116.297 40.0293 116.253 40.1205C116.208 40.2127 116.165 40.3215 116.123 40.4469C116.073 40.595 116.02 40.7226 115.964 40.8297C115.909 40.9368 115.84 41.0194 115.755 41.0775C115.671 41.1367 115.561 41.1664 115.426 41.1664ZM114.781 42.2263L117.28 42.2263L117.28 42.4023L114.781 42.4023L114.781 42.2263ZM116.042 44.6192L116.042 45.5369L114.896 45.5369C114.846 45.4173 114.808 45.2897 114.783 45.1541C114.759 45.0185 114.747 44.8744 114.747 44.7217C114.747 44.4563 114.797 44.2324 114.897 44.0501C114.999 43.8689 115.145 43.7317 115.337 43.6382C115.528 43.5448 115.758 43.4981 116.027 43.4981C116.278 43.4981 116.5 43.5488 116.695 43.6502C116.89 43.7527 117.043 43.8991 117.153 44.0894C117.264 44.2797 117.319 44.5075 117.319 44.773C117.319 44.9097 117.307 45.0385 117.281 45.1592C117.256 45.2811 117.219 45.3968 117.169 45.5062L117.011 45.4361C117.062 45.3278 117.099 45.2173 117.124 45.1045C117.149 44.9929 117.162 44.8795 117.162 44.7645C117.162 44.5389 117.113 44.3446 117.017 44.1817C116.921 44.0199 116.788 43.8957 116.617 43.8091C116.447 43.7237 116.251 43.681 116.029 43.681C115.777 43.681 115.568 43.7225 115.402 43.8057C115.235 43.8889 115.111 44.0102 115.027 44.1697C114.944 44.3304 114.903 44.5252 114.903 44.7542C114.903 44.8795 114.912 44.9917 114.93 45.0909C114.948 45.1911 114.972 45.2817 115.002 45.3626L115.882 45.3626L115.882 44.6192L116.042 44.6192ZM114.781 48.5092L114.781 48.3297L116.991 46.8532L116.991 46.8446C116.929 46.8469 116.867 46.8486 116.803 46.8498C116.74 46.852 116.675 46.8537 116.608 46.8549C116.542 46.8572 116.474 46.8583 116.403 46.8583L114.781 46.8583L114.781 46.6908L117.28 46.6908L117.28 46.872L115.077 48.3434L115.077 48.352C115.127 48.3508 115.185 48.3491 115.251 48.3468C115.317 48.3457 115.385 48.344 115.455 48.3417C115.524 48.3406 115.59 48.34 115.651 48.34L117.28 48.34L117.28 48.5092L114.781 48.5092ZM114.781 52.7396L115.665 52.3995L115.665 51.3502L114.781 51.0033L114.781 50.8238L117.288 51.8065L117.288 51.9671L114.781 52.9242L114.781 52.7396ZM115.824 52.3431L116.76 51.9979C116.784 51.9888 116.815 51.9774 116.853 51.9637C116.89 51.9512 116.93 51.9375 116.972 51.9227C117.014 51.909 117.054 51.8954 117.092 51.8817C117.052 51.8703 117.012 51.8578 116.972 51.8441C116.932 51.8304 116.894 51.8173 116.856 51.8048C116.819 51.7923 116.786 51.7803 116.757 51.7689L115.824 51.41L115.824 52.3431ZM114.781 55.6213L114.781 55.4418L116.991 53.9653L116.991 53.9567C116.929 53.959 116.867 53.9607 116.803 53.9619C116.74 53.9641 116.675 53.9659 116.608 53.967C116.542 53.9693 116.474 53.9704 116.403 53.9704L114.781 53.9704L114.781 53.8029L117.28 53.8029L117.28 53.9841L115.077 55.4555L115.077 55.4641C115.127 55.4629 115.185 55.4612 115.251 55.4589C115.317 55.4578 115.385 55.4561 115.455 55.4538C115.524 55.4527 115.59 55.4521 115.651 55.4521L117.28 55.4521L117.28 55.6213L114.781 55.6213ZM116.054 58.7542C115.775 58.7542 115.541 58.7046 115.352 58.6055C115.163 58.5075 115.021 58.3617 114.925 58.168C114.829 57.9755 114.781 57.7368 114.781 57.452L114.781 56.8538L117.28 56.8538L117.28 57.5306C117.28 57.7972 117.233 58.021 117.14 58.2022C117.046 58.3834 116.908 58.5206 116.726 58.6141C116.545 58.7075 116.321 58.7542 116.054 58.7542ZM116.048 58.5696C116.286 58.5696 116.485 58.5309 116.644 58.4534C116.804 58.3759 116.923 58.2575 117.003 58.0979C117.084 57.9384 117.124 57.7362 117.124 57.4913L117.124 57.0298L114.937 57.0298L114.937 57.4434C114.937 57.8205 115.029 58.1025 115.214 58.2894C115.399 58.4762 115.677 58.5696 116.048 58.5696ZM116.054 63.1846C115.775 63.1846 115.541 63.135 115.352 63.0359C115.163 62.9379 115.021 62.7921 114.925 62.5984C114.829 62.4058 114.781 62.1672 114.781 61.8823L114.781 61.2842L117.28 61.2842L117.28 61.9609C117.28 62.2275 117.233 62.4514 117.14 62.6326C117.046 62.8137 116.908 62.951 116.726 63.0444C116.545 63.1379 116.321 63.1846 116.054 63.1846ZM116.048 63C116.286 63 116.485 62.9613 116.644 62.8838C116.804 62.8063 116.923 62.6878 117.003 62.5283C117.084 62.3688 117.124 62.1666 117.124 61.9216L117.124 61.4602L114.937 61.4602L114.937 61.8738C114.937 62.2509 115.029 62.5329 115.214 62.7197C115.399 62.9066 115.677 63 116.048 63ZM114.781 65.6458L114.781 64.2804L117.28 64.2804L117.28 65.6458L117.121 65.6458L117.121 64.4564L116.174 64.4564L116.174 65.5792L116.015 65.5792L116.015 64.4564L114.94 64.4564L114.94 65.6458L114.781 65.6458ZM117.28 68.4079L114.781 67.4851L114.781 67.3107L117.28 66.3879L117.28 66.5725L115.431 67.2561C115.377 67.2754 115.325 67.2937 115.273 67.3107C115.223 67.3278 115.175 67.3438 115.128 67.3586C115.081 67.3734 115.036 67.3865 114.993 67.3979C115.036 67.4093 115.08 67.4218 115.125 67.4355C115.17 67.4503 115.218 67.4663 115.268 67.4833C115.32 67.5004 115.374 67.5192 115.432 67.5397L117.28 68.2216L117.28 68.4079ZM114.781 70.6504L114.781 69.285L117.28 69.285L117.28 70.6504L117.121 70.6504L117.121 69.461L116.174 69.461L116.174 70.5838L116.015 70.5838L116.015 69.461L114.94 69.461L114.94 70.6504L114.781 70.6504ZM114.781 71.7445L117.28 71.7445L117.28 71.9206L114.942 71.9206L114.942 73.11L114.781 73.11L114.781 71.7445ZM116.034 76.166C115.844 76.166 115.67 76.1427 115.513 76.0959C115.355 76.0492 115.22 75.9792 115.106 75.8857C114.992 75.7923 114.904 75.6755 114.841 75.5354C114.778 75.3964 114.747 75.234 114.747 75.0483C114.747 74.8615 114.778 74.698 114.841 74.5579C114.904 74.4177 114.992 74.3009 115.106 74.2075C115.221 74.1152 115.357 74.0457 115.514 73.999C115.673 73.9523 115.847 73.929 116.037 73.929C116.29 73.929 116.513 73.9717 116.706 74.0571C116.898 74.1437 117.048 74.2708 117.157 74.4382C117.265 74.6069 117.319 74.8148 117.319 75.062C117.319 75.299 117.267 75.4995 117.164 75.6636C117.061 75.8288 116.913 75.9535 116.721 76.0378C116.53 76.1233 116.301 76.166 116.034 76.166ZM116.036 74.1135C115.812 74.1135 115.615 74.1471 115.444 74.2144C115.275 74.2816 115.142 74.3847 115.046 74.5237C114.95 74.6627 114.903 74.8381 114.903 75.05C114.903 75.2642 114.95 75.4403 115.044 75.5781C115.139 75.716 115.271 75.818 115.441 75.884C115.611 75.9501 115.808 75.9832 116.034 75.9832C116.391 75.9832 116.667 75.9051 116.864 75.749C117.062 75.5941 117.16 75.3651 117.16 75.062C117.16 74.849 117.113 74.6718 117.018 74.5305C116.924 74.3904 116.792 74.2856 116.624 74.2161C116.455 74.1477 116.259 74.1135 116.036 74.1135ZM117.28 77.8788C117.28 78.1761 117.223 78.3989 117.109 78.547C116.995 78.6951 116.818 78.7691 116.577 78.7691C116.454 78.7691 116.345 78.7492 116.249 78.7093C116.155 78.6706 116.075 78.6119 116.01 78.5333C115.945 78.4547 115.896 78.3561 115.863 78.2376C115.83 78.1203 115.813 77.983 115.813 77.8258L115.813 77.4413L114.781 77.4413L114.781 77.2652L117.28 77.2652L117.28 77.8788ZM117.124 77.86L117.124 77.4413L115.969 77.4413L115.969 77.8087C115.969 77.9705 115.987 78.1095 116.024 78.2257C116.061 78.3419 116.124 78.4313 116.212 78.494C116.299 78.5567 116.419 78.588 116.571 78.588C116.763 78.588 116.903 78.5287 116.991 78.4103C117.08 78.2918 117.124 78.1083 117.124 77.86ZM114.781 80.9194L117.088 80.0017L117.088 79.9931C117.046 79.9954 117.002 79.9971 116.955 79.9982C116.91 80.0005 116.862 80.0022 116.812 80.0034C116.761 80.0045 116.709 80.0051 116.654 80.0051L114.781 80.0051L114.781 79.8376L117.28 79.8376L117.28 80.1042L115.055 80.9895L115.055 80.9997L117.28 81.8918L117.28 82.1516L114.781 82.1516L114.781 81.979L116.675 81.979C116.719 81.979 116.765 81.9795 116.812 81.9807C116.858 81.9818 116.904 81.9829 116.95 81.9841C116.997 81.9864 117.042 81.9886 117.085 81.9909L117.085 81.9807L114.781 81.0595L114.781 80.9194ZM114.781 84.7496L114.781 83.3841L117.28 83.3841L117.28 84.7496L117.121 84.7496L117.121 83.5601L116.174 83.5601L116.174 84.6829L116.015 84.6829L116.015 83.5601L114.94 83.5601L114.94 84.7496L114.781 84.7496ZM114.781 87.662L114.781 87.4826L116.991 86.006L116.991 85.9975C116.929 85.9997 116.867 86.0014 116.803 86.0026C116.74 86.0049 116.675 86.0066 116.608 86.0077C116.542 86.01 116.474 86.0111 116.403 86.0111L114.781 86.0111L114.781 85.8437L117.28 85.8437L117.28 86.0248L115.077 87.4962L115.077 87.5048C115.127 87.5036 115.185 87.5019 115.251 87.4997C115.317 87.4985 115.385 87.4968 115.455 87.4945C115.524 87.4934 115.59 87.4928 115.651 87.4928L117.28 87.4928L117.28 87.662L114.781 87.662ZM114.781 89.5474L114.781 89.3696L117.121 89.3696L117.121 88.5596L117.28 88.5596L117.28 90.3574L117.121 90.3574L117.121 89.5474L114.781 89.5474ZM114.781 94.0939L114.781 92.5302L114.928 92.5302L115.694 93.2651C115.816 93.3824 115.926 93.481 116.024 93.5607C116.123 93.6416 116.222 93.7026 116.321 93.7436C116.42 93.7858 116.531 93.8068 116.654 93.8068C116.815 93.8068 116.94 93.7596 117.029 93.665C117.117 93.5716 117.162 93.4445 117.162 93.2839C117.162 93.1757 117.142 93.0714 117.104 92.9711C117.065 92.872 117.008 92.7752 116.933 92.6806L117.054 92.5849C117.111 92.6544 117.159 92.7273 117.198 92.8037C117.236 92.8811 117.266 92.9603 117.285 93.0412C117.305 93.1221 117.316 93.203 117.316 93.2839C117.316 93.4263 117.288 93.5494 117.234 93.653C117.18 93.7578 117.104 93.8393 117.006 93.8974C116.908 93.9555 116.793 93.9846 116.661 93.9846C116.524 93.9846 116.4 93.9606 116.289 93.9128C116.178 93.8661 116.07 93.7994 115.964 93.7128C115.858 93.6263 115.744 93.5237 115.622 93.4052L114.949 92.7541L114.942 92.7541L114.942 94.0939L114.781 94.0939ZM116.037 96.6561C115.829 96.6561 115.644 96.6401 115.484 96.6082C115.323 96.5763 115.188 96.5279 115.079 96.4629C114.969 96.398 114.887 96.3154 114.831 96.2151C114.775 96.1149 114.747 95.9964 114.747 95.8597C114.747 95.6865 114.795 95.5407 114.892 95.4222C114.989 95.3037 115.133 95.2137 115.325 95.1521C115.516 95.0918 115.754 95.0616 116.037 95.0616C116.29 95.0616 116.513 95.0872 116.706 95.1385C116.898 95.1909 117.048 95.2758 117.157 95.3931C117.265 95.5105 117.319 95.6665 117.319 95.8614C117.319 96.0551 117.266 96.21 117.16 96.3262C117.054 96.4436 116.905 96.5279 116.712 96.5791C116.521 96.6304 116.296 96.6561 116.037 96.6561ZM116.037 95.2359C115.781 95.2359 115.569 95.2581 115.4 95.3025C115.232 95.347 115.107 95.4153 115.024 95.5076C114.941 95.5999 114.899 95.7172 114.899 95.8597C114.899 96.0066 114.941 96.1257 115.024 96.2168C115.107 96.308 115.233 96.3746 115.402 96.4168C115.57 96.4601 115.782 96.4817 116.037 96.4817C116.272 96.4817 116.474 96.4629 116.642 96.4253C116.811 96.3889 116.94 96.3256 117.03 96.2356C117.12 96.1456 117.165 96.0209 117.165 95.8614C117.165 95.7053 117.119 95.5817 117.027 95.4905C116.935 95.3994 116.804 95.3339 116.635 95.294C116.467 95.2553 116.267 95.2359 116.037 95.2359ZM114.781 99.143L114.781 97.5792L114.928 97.5792L115.694 98.3141C115.816 98.4315 115.926 98.53 116.024 98.6098C116.123 98.6907 116.222 98.7516 116.321 98.7926C116.42 98.8348 116.531 98.8559 116.654 98.8559C116.815 98.8559 116.94 98.8086 117.029 98.714C117.117 98.6206 117.162 98.4936 117.162 98.3329C117.162 98.2247 117.142 98.1204 117.104 98.0202C117.065 97.921 117.008 97.8242 116.933 97.7296L117.054 97.6339C117.111 97.7034 117.159 97.7763 117.198 97.8527C117.236 97.9302 117.266 98.0093 117.285 98.0902C117.305 98.1711 117.316 98.252 117.316 98.3329C117.316 98.4753 117.288 98.5984 117.234 98.702C117.18 98.8069 117.104 98.8883 117.006 98.9464C116.908 99.0045 116.793 99.0336 116.661 99.0336C116.524 99.0336 116.4 99.0097 116.289 98.9618C116.178 98.9151 116.07 98.8485 115.964 98.7619C115.858 98.6753 115.744 98.5727 115.622 98.4542L114.949 97.8031L114.942 97.8031L114.942 99.143L114.781 99.143ZM115.419 101.861L115.419 101.43L114.781 101.43L114.781 101.261L115.419 101.261L115.419 99.9927L115.555 99.9927L117.293 101.249L117.293 101.43L115.578 101.43L115.578 101.861L115.419 101.861ZM115.578 101.261L116.538 101.261C116.609 101.261 116.67 101.261 116.721 101.261C116.772 101.262 116.818 101.263 116.859 101.264C116.902 101.265 116.942 101.266 116.981 101.268C117.019 101.269 117.059 101.27 117.1 101.271L117.1 101.261C117.046 101.229 116.995 101.199 116.948 101.17C116.903 101.143 116.851 101.108 116.793 101.064L115.578 100.182L115.578 101.261ZM115.648 104.009L115.807 104.009L115.807 104.857L115.648 104.857L115.648 104.009ZM114.781 108.713L114.781 107.15L114.928 107.15L115.694 107.884C115.816 108.002 115.926 108.1 116.024 108.18C116.123 108.261 116.222 108.322 116.321 108.363C116.42 108.405 116.531 108.426 116.654 108.426C116.815 108.426 116.94 108.379 117.029 108.284C117.117 108.191 117.162 108.064 117.162 107.903C117.162 107.795 117.142 107.691 117.104 107.59C117.065 107.491 117.008 107.395 116.933 107.3L117.054 107.204C117.111 107.274 117.159 107.347 117.198 107.423C117.236 107.5 117.266 107.58 117.285 107.661C117.305 107.741 117.316 107.822 117.316 107.903C117.316 108.046 117.288 108.169 117.234 108.272C117.18 108.377 117.104 108.459 117.006 108.517C116.908 108.575 116.793 108.604 116.661 108.604C116.524 108.604 116.4 108.58 116.289 108.532C116.178 108.485 116.07 108.419 115.964 108.332C115.858 108.246 115.744 108.143 115.622 108.025L114.949 107.373L114.942 107.373L114.942 108.713L114.781 108.713ZM116.037 111.275C115.829 111.275 115.644 111.259 115.484 111.228C115.323 111.196 115.188 111.147 115.079 111.082C114.969 111.017 114.887 110.935 114.831 110.834C114.775 110.734 114.747 110.616 114.747 110.479C114.747 110.306 114.795 110.16 114.892 110.042C114.989 109.923 115.133 109.833 115.325 109.771C115.516 109.711 115.754 109.681 116.037 109.681C116.29 109.681 116.513 109.707 116.706 109.758C116.898 109.81 117.048 109.895 117.157 110.012C117.265 110.13 117.319 110.286 117.319 110.481C117.319 110.674 117.266 110.829 117.16 110.946C117.054 111.063 116.905 111.147 116.712 111.198C116.521 111.25 116.296 111.275 116.037 111.275ZM116.037 109.855C115.781 109.855 115.569 109.877 115.4 109.922C115.232 109.966 115.107 110.035 115.024 110.127C114.941 110.219 114.899 110.337 114.899 110.479C114.899 110.626 114.941 110.745 115.024 110.836C115.107 110.927 115.233 110.994 115.402 111.036C115.57 111.079 115.782 111.101 116.037 111.101C116.272 111.101 116.474 111.082 116.642 111.045C116.811 111.008 116.94 110.945 117.03 110.855C117.12 110.765 117.165 110.64 117.165 110.481C117.165 110.325 117.119 110.201 117.027 110.11C116.935 110.019 116.804 109.953 116.635 109.913C116.467 109.875 116.267 109.855 116.037 109.855ZM114.781 113.762L114.781 112.199L114.928 112.199L115.694 112.933C115.816 113.051 115.926 113.149 116.024 113.229C116.123 113.31 116.222 113.371 116.321 113.412C116.42 113.454 116.531 113.475 116.654 113.475C116.815 113.475 116.94 113.428 117.029 113.333C117.117 113.24 117.162 113.113 117.162 112.952C117.162 112.844 117.142 112.74 117.104 112.64C117.065 112.54 117.008 112.444 116.933 112.349L117.054 112.253C117.111 112.323 117.159 112.396 117.198 112.472C117.236 112.549 117.266 112.629 117.285 112.71C117.305 112.79 117.316 112.871 117.316 112.952C117.316 113.095 117.288 113.218 117.234 113.321C117.18 113.426 117.104 113.508 117.006 113.566C116.908 113.624 116.793 113.653 116.661 113.653C116.524 113.653 116.4 113.629 116.289 113.581C116.178 113.534 116.07 113.468 115.964 113.381C115.858 113.295 115.744 113.192 115.622 113.074L114.949 112.422L114.942 112.422L114.942 113.762L114.781 113.762ZM116.287 115.49C116.287 115.659 116.258 115.804 116.201 115.926C116.144 116.049 116.061 116.144 115.952 116.21C115.844 116.277 115.711 116.311 115.554 116.311C115.387 116.311 115.244 116.274 115.123 116.2C115.002 116.126 114.909 116.021 114.844 115.885C114.78 115.751 114.747 115.592 114.747 115.408C114.747 115.276 114.76 115.156 114.785 115.048C114.811 114.941 114.846 114.85 114.889 114.776L115.063 114.776C115.015 114.856 114.976 114.951 114.945 115.061C114.915 115.173 114.899 115.289 114.899 115.41C114.899 115.556 114.924 115.683 114.973 115.791C115.023 115.899 115.096 115.983 115.191 116.042C115.287 116.103 115.404 116.133 115.543 116.133C115.729 116.133 115.874 116.077 115.978 115.964C116.082 115.851 116.135 115.681 116.135 115.453C116.135 115.359 116.128 115.27 116.114 115.185C116.102 115.1 116.086 115.022 116.066 114.949L116.136 114.85L117.28 114.95L117.28 116.15L117.119 116.15L117.119 115.099L116.229 115.022C116.241 115.073 116.254 115.138 116.266 115.215C116.28 115.294 116.287 115.386 116.287 115.49Z" fill="#282828"/>
<path d="M114.781 135.78L117.28 135.78L117.28 135.956L114.942 135.956L114.942 137.146L114.781 137.146L114.781 135.78ZM114.781 139.664L115.665 139.323L115.665 138.274L114.781 137.927L114.781 137.748L117.288 138.73L117.288 138.891L114.781 139.848L114.781 139.664ZM115.824 139.267L116.76 138.922C116.784 138.913 116.815 138.901 116.853 138.888C116.89 138.875 116.93 138.861 116.972 138.847C117.014 138.833 117.054 138.819 117.092 138.806C117.052 138.794 117.012 138.782 116.972 138.768C116.932 138.754 116.894 138.741 116.856 138.729C116.819 138.716 116.786 138.704 116.757 138.693L115.824 138.334L115.824 139.267ZM117.28 142.775C117.28 143.072 117.223 143.295 117.109 143.443C116.995 143.591 116.818 143.665 116.577 143.665C116.454 143.665 116.345 143.645 116.249 143.605C116.155 143.566 116.075 143.508 116.01 143.429C115.945 143.35 115.896 143.252 115.863 143.133C115.83 143.016 115.813 142.879 115.813 142.722L115.813 142.337L114.781 142.337L114.781 142.161L117.28 142.161L117.28 142.775ZM117.124 142.756L117.124 142.337L115.969 142.337L115.969 142.704C115.969 142.866 115.987 143.005 116.024 143.121C116.061 143.238 116.124 143.327 116.212 143.39C116.299 143.452 116.419 143.484 116.571 143.484C116.763 143.484 116.903 143.425 116.991 143.306C117.08 143.188 117.124 143.004 117.124 142.756ZM116.034 146.835C115.844 146.835 115.67 146.812 115.513 146.765C115.355 146.719 115.22 146.649 115.106 146.555C114.992 146.462 114.904 146.345 114.841 146.205C114.778 146.066 114.747 145.903 114.747 145.718C114.747 145.531 114.778 145.367 114.841 145.227C114.904 145.087 114.992 144.97 115.106 144.877C115.221 144.785 115.357 144.715 115.514 144.668C115.673 144.622 115.847 144.598 116.037 144.598C116.29 144.598 116.513 144.641 116.706 144.727C116.898 144.813 117.049 144.94 117.157 145.108C117.265 145.276 117.319 145.484 117.319 145.731C117.319 145.968 117.267 146.169 117.164 146.333C117.061 146.498 116.913 146.623 116.721 146.707C116.53 146.793 116.301 146.835 116.034 146.835ZM116.036 144.783C115.812 144.783 115.615 144.817 115.444 144.884C115.275 144.951 115.142 145.054 115.046 145.193C114.95 145.332 114.903 145.508 114.903 145.719C114.903 145.934 114.95 146.11 115.044 146.248C115.139 146.385 115.271 146.487 115.441 146.553C115.611 146.62 115.808 146.653 116.034 146.653C116.391 146.653 116.667 146.575 116.864 146.418C117.062 146.263 117.16 146.034 117.16 145.731C117.16 145.518 117.113 145.341 117.018 145.2C116.924 145.06 116.792 144.955 116.624 144.885C116.455 144.817 116.259 144.783 116.036 144.783ZM115.426 149.31C115.276 149.31 115.151 149.273 115.05 149.198C114.949 149.122 114.874 149.02 114.822 148.892C114.772 148.763 114.747 148.617 114.747 148.454C114.747 148.353 114.752 148.26 114.762 148.177C114.772 148.095 114.784 148.021 114.8 147.953C114.816 147.887 114.834 147.827 114.855 147.772L115.031 147.772C114.997 147.861 114.966 147.964 114.94 148.08C114.915 148.197 114.903 148.325 114.903 148.463C114.903 148.593 114.921 148.708 114.959 148.808C114.997 148.909 115.054 148.989 115.13 149.047C115.206 149.105 115.302 149.134 115.419 149.134C115.521 149.134 115.605 149.11 115.67 149.061C115.736 149.013 115.792 148.941 115.839 148.844C115.887 148.747 115.935 148.625 115.984 148.478C116.02 148.376 116.057 148.282 116.095 148.198C116.135 148.115 116.181 148.043 116.232 147.984C116.285 147.925 116.347 147.879 116.42 147.847C116.494 147.817 116.581 147.801 116.682 147.801C116.819 147.801 116.935 147.836 117.029 147.906C117.123 147.976 117.194 148.071 117.242 148.191C117.291 148.312 117.316 148.447 117.316 148.598C117.316 148.717 117.304 148.831 117.281 148.938C117.26 149.046 117.227 149.15 117.182 149.251L117.03 149.189C117.074 149.089 117.105 148.989 117.126 148.888C117.146 148.788 117.157 148.689 117.157 148.591C117.157 148.474 117.139 148.369 117.104 148.276C117.07 148.185 117.018 148.113 116.948 148.059C116.879 148.006 116.791 147.979 116.685 147.979C116.576 147.979 116.487 148.004 116.42 148.053C116.353 148.103 116.297 148.173 116.253 148.264C116.208 148.357 116.165 148.466 116.123 148.591C116.073 148.739 116.02 148.867 115.964 148.974C115.909 149.081 115.84 149.163 115.755 149.222C115.671 149.281 115.561 149.31 115.426 149.31ZM114.781 151.023L114.781 150.845L117.121 150.845L117.121 150.035L117.28 150.035L117.28 151.833L117.121 151.833L117.121 151.023L114.781 151.023ZM114.781 154.096L114.781 152.731L117.28 152.731L117.28 154.096L117.121 154.096L117.121 152.907L116.174 152.907L116.174 154.03L116.015 154.03L116.015 152.907L114.94 152.907L114.94 154.096L114.781 154.096Z" fill="#282828"/>
<path fill-rule="evenodd" clip-rule="evenodd" d="M122.469 123.71V120.44C121.03 120.44 119.864 119.159 119.864 117.579C119.864 115.998 121.03 114.717 122.469 114.717V111.447C121.03 111.447 119.864 110.166 119.864 108.586C119.864 107.006 121.03 105.725 122.469 105.725V102.455C121.03 102.455 119.864 101.174 119.864 99.5933C119.864 98.0131 121.03 96.732 122.469 96.732V93.4619C121.03 93.4619 119.864 92.1808 119.864 90.6006C119.864 89.0203 121.03 87.7393 122.469 87.7393V84.4692C121.03 84.4692 119.864 83.1882 119.864 81.6079C119.864 80.0276 121.03 78.7466 122.469 78.7466V75.4765C121.03 75.4765 119.864 74.1955 119.864 72.6152C119.864 71.0349 121.03 69.7539 122.469 69.7539V66.4838C121.03 66.4838 119.864 65.2028 119.864 63.6225C119.864 62.0422 121.03 60.7612 122.469 60.7612V57.4911C121.03 57.4911 119.864 56.2101 119.864 54.6298C119.864 53.0495 121.03 51.7685 122.469 51.7685V48.4984C121.03 48.4984 119.864 47.2173 119.864 45.6371C119.864 44.0568 121.03 42.7758 122.469 42.7758V39.5057C121.03 39.5057 119.864 38.2246 119.864 36.6444C119.864 35.0641 121.03 33.7831 122.469 33.7831V30.513C121.03 30.513 119.864 29.2319 119.864 27.6517C119.864 26.0714 121.03 24.7903 122.469 24.7903V21.5203C121.03 21.5203 119.864 20.2392 119.864 18.659C119.864 17.0787 121.03 15.7976 122.469 15.7976V12.5276C121.03 12.5276 119.864 11.2465 119.864 9.66626C119.864 8.086 121.03 6.80493 122.469 6.80493V3.53488C121.03 3.53488 119.864 2.25381 119.864 0.673553H116.886C116.886 2.25381 115.719 3.53488 114.28 3.53488C112.841 3.53488 111.674 2.25381 111.674 0.673553H108.696C108.696 2.25381 107.53 3.53488 106.091 3.53488C104.651 3.53488 103.485 2.25381 103.485 0.673553H100.507C100.507 2.25381 99.3402 3.53488 97.9011 3.53488C96.462 3.53488 95.2954 2.25381 95.2954 0.673553H92.3174C92.3174 2.25381 91.1508 3.53488 89.7117 3.53488C88.2726 3.53488 87.106 2.25381 87.106 0.673553H84.1279C84.1279 2.25381 82.9613 3.53488 81.5222 3.53488C80.0831 3.53488 78.9165 2.25381 78.9165 0.673553H75.9385C75.9385 2.25381 74.7719 3.53488 73.3328 3.53488C71.8937 3.53488 70.7271 2.25381 70.7271 0.673553H67.749C67.749 2.25381 66.5825 3.53488 65.1433 3.53488C63.7042 3.53488 62.5376 2.25381 62.5376 0.673553H59.5597C59.5597 2.25381 58.3931 3.53488 56.9539 3.53488C55.5148 3.53488 54.3481 2.25381 54.3481 0.673553H51.3702C51.3702 2.25381 50.2036 3.53488 48.7644 3.53488C47.3253 3.53488 46.1587 2.25381 46.1587 0.673553H43.1808C43.1808 2.25381 42.0142 3.53488 40.575 3.53488C39.1359 3.53488 37.9692 2.25381 37.9692 0.673553H34.9913C34.9913 2.25381 33.8247 3.53488 32.3855 3.53488C30.9464 3.53488 29.7798 2.25381 29.7798 0.673553H26.8019C26.8019 2.25381 25.6353 3.53488 24.196 3.53488C22.757 3.53488 21.5903 2.25381 21.5903 0.673553H18.6124C18.6124 2.25381 17.4458 3.53488 16.0066 3.53488C14.5675 3.53488 13.4009 2.25381 13.4009 0.673553H10.423C10.423 2.25381 9.25635 3.53488 7.81726 3.53488C6.37805 3.53488 5.21143 2.25381 5.21143 0.673553H2.23352C2.23352 2.11502 1.26282 3.30756 0 3.50589V6.83392C1.26282 7.03226 2.23352 8.22479 2.23352 9.66626C2.23352 11.1077 1.26282 12.3003 0 12.4986V15.8266C1.26282 16.025 2.23352 17.2175 2.23352 18.659C2.23352 20.1004 1.26282 21.293 0 21.4913V24.8193C1.26282 25.0177 2.23352 26.2102 2.23352 27.6517C2.23352 29.0931 1.26282 30.2857 0 30.484V33.812C1.26282 34.0104 2.23352 35.2029 2.23352 36.6444C2.23352 38.0858 1.26282 39.2784 0 39.4767V42.8047C1.26282 43.0031 2.23352 44.1956 2.23352 45.6371C2.23352 47.0786 1.26282 48.2711 0 48.4694V51.7975C1.26282 51.9958 2.23352 53.1883 2.23352 54.6298C2.23352 56.0713 1.26282 57.2638 0 57.4621V60.7902C1.26282 60.9885 2.23352 62.181 2.23352 63.6225C2.23352 65.064 1.26282 66.2565 0 66.4548V69.7828C1.26282 69.9812 2.23352 71.1737 2.23352 72.6152C2.23352 74.0567 1.26282 75.2492 0 75.4475V78.7756C1.26282 78.9739 2.23352 80.1664 2.23352 81.6079C2.23352 83.0494 1.26282 84.2419 0 84.4402V87.7682C1.26282 87.9666 2.23352 89.1591 2.23352 90.6006C2.23352 92.0421 1.26282 93.2346 0 93.4329V96.761C1.26282 96.9593 2.23352 98.1518 2.23352 99.5933C2.23352 101.035 1.26282 102.227 0 102.426V105.754C1.26282 105.952 2.23352 107.145 2.23352 108.586C2.23352 110.027 1.26282 111.22 0 111.418V114.746C1.26282 114.945 2.23352 116.137 2.23352 117.579C2.23352 119.02 1.26282 120.213 0 120.411V123.739C1.26282 123.937 2.23352 125.13 2.23352 126.571C2.23352 128.013 1.26282 129.205 0 129.404V132.732C1.26282 132.93 2.23352 134.123 2.23352 135.564C2.23352 137.006 1.26282 138.198 0 138.396V141.724C1.26282 141.923 2.23352 143.115 2.23352 144.557C2.23352 145.998 1.26282 147.191 0 147.389V150.717C1.26282 150.916 2.23352 152.108 2.23352 153.55C2.23352 154.991 1.26282 156.184 0 156.382V161.345C1.26282 161.543 2.23352 162.736 2.23352 164.177H5.21143C5.21143 162.597 6.37805 161.316 7.81726 161.316C9.25635 161.316 10.423 162.597 10.423 164.177H13.4009C13.4009 162.597 14.5675 161.316 16.0066 161.316C17.4458 161.316 18.6124 162.597 18.6124 164.177H21.5903C21.5903 162.597 22.757 161.316 24.196 161.316C25.6353 161.316 26.8019 162.597 26.8019 164.177H29.7798C29.7798 162.597 30.9464 161.316 32.3855 161.316C33.8247 161.316 34.9913 162.597 34.9913 164.177H37.9692C37.9692 162.597 39.1359 161.316 40.575 161.316C42.0142 161.316 43.1808 162.597 43.1808 164.177H46.1587C46.1587 162.597 47.3253 161.316 48.7644 161.316C50.2036 161.316 51.3702 162.597 51.3702 164.177H54.3481C54.3481 162.597 55.5148 161.316 56.9539 161.316C58.3931 161.316 59.5597 162.597 59.5597 164.177H62.5376C62.5376 162.597 63.7042 161.316 65.1433 161.316C66.5825 161.316 67.749 162.597 67.749 164.177H70.7271C70.7271 162.597 71.8937 161.316 73.3328 161.316C74.7719 161.316 75.9385 162.597 75.9385 164.177H78.9165C78.9165 162.597 80.0831 161.316 81.5222 161.316C82.9613 161.316 84.1279 162.597 84.1279 164.177H87.106C87.106 162.597 88.2726 161.316 89.7117 161.316C91.1508 161.316 92.3174 162.597 92.3174 164.177H95.2954C95.2954 162.597 96.462 161.316 97.9011 161.316C99.3402 161.316 100.507 162.597 100.507 164.177H103.485C103.485 162.597 104.651 161.316 106.091 161.316C107.53 161.316 108.696 162.597 108.696 164.177H111.674C111.674 162.597 112.841 161.316 114.28 161.316C115.719 161.316 116.886 162.597 116.886 164.177H119.864C119.864 162.597 121.03 161.316 122.469 161.316V156.411C121.03 156.411 119.864 155.13 119.864 153.55C119.864 151.969 121.03 150.688 122.469 150.688V147.418C121.03 147.418 119.864 146.137 119.864 144.557C119.864 142.977 121.03 141.695 122.469 141.695V138.425C121.03 138.425 119.864 137.144 119.864 135.564C119.864 133.984 121.03 132.703 122.469 132.703V129.433C121.03 129.433 119.864 128.152 119.864 126.571C119.864 124.991 121.03 123.71 122.469 123.71ZM113.163 10.4838H8.93408V153.958H113.163V10.4838Z" fill="#FFF6F6"/>
<path d="M114.571 11.0657L114.571 10.8896L117.07 10.8896L117.07 12.2568L116.911 12.2568L116.911 11.0657L115.846 11.0657L115.846 12.1919L115.689 12.1919L115.689 11.0657L114.571 11.0657ZM117.07 13.7816C117.07 13.9798 117.048 14.145 117.005 14.2772C116.962 14.4105 116.89 14.5108 116.791 14.578C116.692 14.6452 116.558 14.6788 116.39 14.6788C116.263 14.6788 116.154 14.6555 116.063 14.6087C115.973 14.5632 115.899 14.4999 115.841 14.419C115.783 14.3382 115.739 14.2447 115.708 14.1388L114.571 14.8241L114.571 14.6156L115.658 13.9713L115.658 13.3509L114.571 13.3509L114.571 13.1749L117.07 13.1749L117.07 13.7816ZM116.914 13.7645L116.914 13.3509L115.814 13.3509L115.814 13.8482C115.814 14.0522 115.863 14.2111 115.961 14.325C116.059 14.4401 116.199 14.4977 116.383 14.4977C116.584 14.4977 116.723 14.4373 116.8 14.3165C116.876 14.1957 116.914 14.0117 116.914 13.7645ZM115.824 17.8835C115.634 17.8835 115.46 17.8601 115.303 17.8134C115.146 17.7667 115.01 17.6966 114.896 17.6032C114.782 17.5098 114.694 17.393 114.631 17.2529C114.568 17.1139 114.537 16.9515 114.537 16.7658C114.537 16.579 114.568 16.4155 114.631 16.2753C114.694 16.1352 114.782 16.0184 114.896 15.925C115.011 15.8327 115.147 15.7632 115.304 15.7165C115.463 15.6698 115.637 15.6464 115.827 15.6464C116.08 15.6464 116.303 15.6892 116.496 15.7746C116.688 15.8612 116.839 15.9882 116.947 16.1557C117.055 16.3243 117.109 16.5323 117.109 16.7795C117.109 17.0165 117.057 17.217 116.954 17.3811C116.851 17.5463 116.704 17.671 116.511 17.7553C116.32 17.8408 116.091 17.8835 115.824 17.8835ZM115.826 15.831C115.602 15.831 115.405 15.8646 115.234 15.9318C115.065 15.9991 114.932 16.1022 114.836 16.2412C114.74 16.3802 114.693 16.5556 114.693 16.7675C114.693 16.9817 114.74 17.1577 114.834 17.2956C114.929 17.4335 115.061 17.5354 115.231 17.6015C115.401 17.6676 115.598 17.7006 115.824 17.7006C116.181 17.7006 116.457 17.6226 116.655 17.4665C116.852 17.3116 116.95 17.0826 116.95 16.7795C116.95 16.5664 116.903 16.3893 116.808 16.248C116.714 16.1079 116.582 16.003 116.414 15.9335C116.245 15.8652 116.049 15.831 115.826 15.831ZM114.571 20.8011L114.571 20.6216L116.781 19.1451L116.781 19.1365C116.719 19.1388 116.657 19.1405 116.593 19.1417C116.53 19.1439 116.465 19.1456 116.398 19.1468C116.332 19.1491 116.264 19.1502 116.193 19.1502L114.571 19.1502L114.571 18.9827L117.07 18.9827L117.07 19.1639L114.867 20.6353L114.867 20.6438C114.917 20.6427 114.975 20.641 115.041 20.6387C115.107 20.6376 115.175 20.6359 115.245 20.6336C115.314 20.6325 115.38 20.6319 115.441 20.6319L117.07 20.6319L117.07 20.8011L114.571 20.8011ZM114.571 22.6864L114.571 22.5087L116.911 22.5087L116.911 21.6986L117.07 21.6986L117.07 23.4965L116.911 23.4965L116.911 22.6864L114.571 22.6864ZM114.571 25.7595L114.571 24.394L117.07 24.394L117.07 25.7595L116.911 25.7595L116.911 24.5701L115.964 24.5701L115.964 25.6929L115.805 25.6929L115.805 24.5701L114.73 24.5701L114.73 25.7595L114.571 25.7595ZM114.571 28.672L114.571 28.4925L116.781 27.016L116.781 27.0074C116.719 27.0097 116.657 27.0114 116.593 27.0125C116.53 27.0148 116.465 27.0165 116.398 27.0177C116.332 27.02 116.264 27.0211 116.193 27.0211L114.571 27.0211L114.571 26.8536L117.07 26.8536L117.07 27.0348L114.867 28.5062L114.867 28.5147C114.917 28.5136 114.975 28.5119 115.041 28.5096C115.107 28.5085 115.175 28.5068 115.245 28.5045C115.314 28.5034 115.38 28.5028 115.441 28.5028L117.07 28.5028L117.07 28.672L114.571 28.672ZM115.844 31.8049C115.565 31.8049 115.331 31.7553 115.142 31.6562C114.953 31.5582 114.811 31.4124 114.715 31.2187C114.619 31.0262 114.571 30.7875 114.571 30.5026L114.571 29.9045L117.07 29.9045L117.07 30.5812C117.07 30.8479 117.023 31.0717 116.93 31.2529C116.836 31.434 116.698 31.5713 116.516 31.6647C116.335 31.7582 116.111 31.8049 115.844 31.8049ZM115.838 31.6203C116.076 31.6203 116.275 31.5816 116.434 31.5041C116.594 31.4266 116.713 31.3081 116.793 31.1486C116.874 30.9891 116.914 30.7869 116.914 30.5419L116.914 30.0805L114.727 30.0805L114.727 30.4941C114.727 30.8712 114.819 31.1532 115.004 31.34C115.189 31.5269 115.467 31.6203 115.838 31.6203ZM115.844 36.2353C115.565 36.2353 115.331 36.1857 115.142 36.0866C114.953 35.9886 114.811 35.8428 114.715 35.6491C114.619 35.4565 114.571 35.2178 114.571 34.933L114.571 34.3349L117.07 34.3349L117.07 35.0116C117.07 35.2782 117.023 35.5021 116.93 35.6833C116.836 35.8644 116.698 36.0017 116.516 36.0951C116.335 36.1885 116.111 36.2353 115.844 36.2353ZM115.838 36.0507C116.076 36.0507 116.275 36.0119 116.434 35.9345C116.594 35.857 116.713 35.7385 116.793 35.579C116.874 35.4195 116.914 35.2173 116.914 34.9723L116.914 34.5109L114.727 34.5109L114.727 34.9245C114.727 35.3016 114.819 35.5836 115.004 35.7704C115.189 35.9573 115.467 36.0507 115.838 36.0507ZM114.571 38.6965L114.571 37.3311L117.07 37.3311L117.07 38.6965L116.911 38.6965L116.911 37.5071L115.964 37.5071L115.964 38.6299L115.805 38.6299L115.805 37.5071L114.73 37.5071L114.73 38.6965L114.571 38.6965ZM115.216 41.1664C115.066 41.1664 114.941 41.1288 114.84 41.0536C114.739 40.9784 114.664 40.8764 114.612 40.7477C114.562 40.6189 114.537 40.4731 114.537 40.3102C114.537 40.2088 114.542 40.1165 114.552 40.0333C114.562 39.9513 114.574 39.8766 114.59 39.8094C114.606 39.7433 114.624 39.683 114.645 39.6283L114.821 39.6283C114.787 39.7171 114.756 39.8197 114.73 39.9359C114.705 40.0532 114.693 40.1808 114.693 40.3187C114.693 40.4486 114.711 40.5637 114.749 40.6639C114.787 40.7653 114.844 40.8451 114.92 40.9032C114.996 40.9613 115.093 40.9903 115.209 40.9903C115.311 40.9903 115.395 40.9658 115.46 40.9168C115.526 40.869 115.582 40.7966 115.629 40.6998C115.677 40.603 115.725 40.4811 115.774 40.3341C115.81 40.2315 115.847 40.1381 115.885 40.0538C115.925 39.9706 115.971 39.8994 116.022 39.8402C116.075 39.7809 116.137 39.7354 116.21 39.7035C116.284 39.6727 116.371 39.6573 116.472 39.6573C116.61 39.6573 116.725 39.6921 116.819 39.7616C116.913 39.8322 116.984 39.9273 117.032 40.047C117.081 40.1677 117.106 40.3033 117.106 40.4537C117.106 40.5733 117.094 40.6867 117.072 40.7938C117.05 40.902 117.017 41.0063 116.972 41.1065L116.82 41.045C116.864 40.9448 116.896 40.8445 116.916 40.7442C116.937 40.644 116.947 40.5449 116.947 40.4469C116.947 40.3295 116.929 40.2247 116.894 40.1324C116.86 40.0413 116.808 39.9689 116.738 39.9154C116.669 39.8618 116.581 39.8351 116.475 39.8351C116.366 39.8351 116.277 39.8596 116.21 39.9085C116.143 39.9587 116.087 40.0293 116.043 40.1205C115.998 40.2127 115.955 40.3215 115.913 40.4469C115.863 40.595 115.81 40.7226 115.754 40.8297C115.699 40.9368 115.63 41.0194 115.545 41.0775C115.461 41.1367 115.351 41.1664 115.216 41.1664ZM114.571 42.2263L117.07 42.2263L117.07 42.4023L114.571 42.4023L114.571 42.2263ZM115.833 44.6192L115.833 45.5369L114.686 45.5369C114.636 45.4173 114.598 45.2897 114.573 45.1541C114.549 45.0185 114.537 44.8744 114.537 44.7217C114.537 44.4563 114.587 44.2324 114.687 44.0501C114.789 43.8689 114.935 43.7317 115.127 43.6382C115.318 43.5448 115.548 43.4981 115.817 43.4981C116.068 43.4981 116.291 43.5488 116.485 43.6502C116.68 43.7527 116.833 43.8991 116.943 44.0894C117.054 44.2797 117.109 44.5075 117.109 44.773C117.109 44.9097 117.097 45.0385 117.072 45.1592C117.046 45.2811 117.009 45.3968 116.959 45.5062L116.802 45.4361C116.852 45.3278 116.889 45.2173 116.914 45.1045C116.939 44.9929 116.952 44.8795 116.952 44.7645C116.952 44.5389 116.903 44.3446 116.807 44.1817C116.711 44.0199 116.578 43.8957 116.407 43.8091C116.237 43.7237 116.041 43.681 115.819 43.681C115.567 43.681 115.358 43.7225 115.192 43.8057C115.025 43.8889 114.901 44.0102 114.817 44.1697C114.734 44.3304 114.693 44.5252 114.693 44.7542C114.693 44.8795 114.702 44.9917 114.72 45.0909C114.738 45.1911 114.762 45.2817 114.792 45.3626L115.672 45.3626L115.672 44.6192L115.833 44.6192ZM114.571 48.5092L114.571 48.3297L116.781 46.8532L116.781 46.8446C116.719 46.8469 116.657 46.8486 116.593 46.8498C116.53 46.852 116.465 46.8537 116.398 46.8549C116.332 46.8572 116.264 46.8583 116.193 46.8583L114.571 46.8583L114.571 46.6908L117.07 46.6908L117.07 46.872L114.867 48.3434L114.867 48.352C114.917 48.3508 114.975 48.3491 115.041 48.3468C115.107 48.3457 115.175 48.344 115.245 48.3417C115.314 48.3406 115.38 48.34 115.441 48.34L117.07 48.34L117.07 48.5092L114.571 48.5092ZM114.571 52.7396L115.455 52.3995L115.455 51.3502L114.571 51.0033L114.571 50.8238L117.078 51.8065L117.078 51.9671L114.571 52.9242L114.571 52.7396ZM115.614 52.3431L116.55 51.9979C116.574 51.9888 116.605 51.9774 116.643 51.9637C116.68 51.9512 116.72 51.9375 116.762 51.9227C116.804 51.909 116.844 51.8954 116.882 51.8817C116.842 51.8703 116.802 51.8578 116.762 51.8441C116.722 51.8304 116.684 51.8173 116.646 51.8048C116.61 51.7923 116.576 51.7803 116.547 51.7689L115.614 51.41L115.614 52.3431ZM114.571 55.6213L114.571 55.4418L116.781 53.9653L116.781 53.9567C116.719 53.959 116.657 53.9607 116.593 53.9619C116.53 53.9641 116.465 53.9659 116.398 53.967C116.332 53.9693 116.264 53.9704 116.193 53.9704L114.571 53.9704L114.571 53.8029L117.07 53.8029L117.07 53.9841L114.867 55.4555L114.867 55.4641C114.917 55.4629 114.975 55.4612 115.041 55.4589C115.107 55.4578 115.175 55.4561 115.245 55.4538C115.314 55.4527 115.38 55.4521 115.441 55.4521L117.07 55.4521L117.07 55.6213L114.571 55.6213ZM115.844 58.7542C115.565 58.7542 115.331 58.7046 115.142 58.6055C114.953 58.5075 114.811 58.3617 114.715 58.168C114.619 57.9755 114.571 57.7368 114.571 57.452L114.571 56.8538L117.07 56.8538L117.07 57.5306C117.07 57.7972 117.023 58.021 116.93 58.2022C116.836 58.3834 116.698 58.5206 116.516 58.6141C116.335 58.7075 116.111 58.7542 115.844 58.7542ZM115.838 58.5696C116.076 58.5696 116.275 58.5309 116.434 58.4534C116.594 58.3759 116.713 58.2575 116.793 58.0979C116.874 57.9384 116.914 57.7362 116.914 57.4913L116.914 57.0298L114.727 57.0298L114.727 57.4434C114.727 57.8205 114.819 58.1025 115.004 58.2894C115.189 58.4762 115.467 58.5696 115.838 58.5696ZM115.844 63.1846C115.565 63.1846 115.331 63.135 115.142 63.0359C114.953 62.9379 114.811 62.7921 114.715 62.5984C114.619 62.4058 114.571 62.1672 114.571 61.8823L114.571 61.2842L117.07 61.2842L117.07 61.9609C117.07 62.2275 117.023 62.4514 116.93 62.6326C116.836 62.8137 116.698 62.951 116.516 63.0444C116.335 63.1379 116.111 63.1846 115.844 63.1846ZM115.838 63C116.076 63 116.275 62.9613 116.434 62.8838C116.594 62.8063 116.713 62.6878 116.793 62.5283C116.874 62.3688 116.914 62.1666 116.914 61.9216L116.914 61.4602L114.727 61.4602L114.727 61.8738C114.727 62.2509 114.819 62.5329 115.004 62.7197C115.189 62.9066 115.467 63 115.838 63ZM114.571 65.6458L114.571 64.2804L117.07 64.2804L117.07 65.6458L116.911 65.6458L116.911 64.4564L115.964 64.4564L115.964 65.5792L115.805 65.5792L115.805 64.4564L114.73 64.4564L114.73 65.6458L114.571 65.6458ZM117.07 68.4079L114.571 67.4851L114.571 67.3107L117.07 66.3879L117.07 66.5725L115.221 67.2561C115.167 67.2754 115.115 67.2937 115.063 67.3107C115.013 67.3278 114.965 67.3438 114.918 67.3586C114.871 67.3734 114.826 67.3865 114.783 67.3979C114.826 67.4093 114.87 67.4218 114.915 67.4355C114.96 67.4503 115.008 67.4663 115.058 67.4833C115.11 67.5004 115.164 67.5192 115.222 67.5397L117.07 68.2216L117.07 68.4079ZM114.571 70.6504L114.571 69.285L117.07 69.285L117.07 70.6504L116.911 70.6504L116.911 69.461L115.964 69.461L115.964 70.5838L115.805 70.5838L115.805 69.461L114.73 69.461L114.73 70.6504L114.571 70.6504ZM114.571 71.7445L117.07 71.7445L117.07 71.9206L114.732 71.9206L114.732 73.11L114.571 73.11L114.571 71.7445ZM115.824 76.166C115.634 76.166 115.46 76.1427 115.303 76.0959C115.146 76.0492 115.01 75.9792 114.896 75.8857C114.782 75.7923 114.694 75.6755 114.631 75.5354C114.568 75.3964 114.537 75.234 114.537 75.0483C114.537 74.8615 114.568 74.698 114.631 74.5579C114.694 74.4177 114.782 74.3009 114.896 74.2075C115.011 74.1152 115.147 74.0457 115.304 73.999C115.463 73.9523 115.637 73.929 115.827 73.929C116.08 73.929 116.303 73.9717 116.496 74.0571C116.688 74.1437 116.839 74.2708 116.947 74.4382C117.055 74.6069 117.109 74.8148 117.109 75.062C117.109 75.299 117.057 75.4995 116.954 75.6636C116.851 75.8288 116.704 75.9535 116.511 76.0378C116.32 76.1233 116.091 76.166 115.824 76.166ZM115.826 74.1135C115.602 74.1135 115.405 74.1471 115.234 74.2144C115.065 74.2816 114.932 74.3847 114.836 74.5237C114.74 74.6627 114.693 74.8381 114.693 75.05C114.693 75.2642 114.74 75.4403 114.834 75.5781C114.929 75.716 115.061 75.818 115.231 75.884C115.401 75.9501 115.598 75.9832 115.824 75.9832C116.181 75.9832 116.457 75.9051 116.655 75.749C116.852 75.5941 116.95 75.3651 116.95 75.062C116.95 74.849 116.903 74.6718 116.808 74.5305C116.714 74.3904 116.582 74.2856 116.414 74.2161C116.245 74.1477 116.049 74.1135 115.826 74.1135ZM117.07 77.8788C117.07 78.1761 117.013 78.3989 116.899 78.547C116.785 78.6951 116.608 78.7691 116.367 78.7691C116.244 78.7691 116.135 78.7492 116.039 78.7093C115.945 78.6706 115.865 78.6119 115.8 78.5333C115.735 78.4547 115.686 78.3561 115.653 78.2376C115.62 78.1203 115.604 77.983 115.604 77.8258L115.604 77.4413L114.571 77.4413L114.571 77.2652L117.07 77.2652L117.07 77.8788ZM116.914 77.86L116.914 77.4413L115.759 77.4413L115.759 77.8087C115.759 77.9705 115.777 78.1095 115.814 78.2257C115.851 78.3419 115.914 78.4313 116.002 78.494C116.089 78.5567 116.209 78.588 116.361 78.588C116.553 78.588 116.693 78.5287 116.781 78.4103C116.87 78.2918 116.914 78.1083 116.914 77.86ZM114.571 80.9194L116.878 80.0017L116.878 79.9931C116.836 79.9954 116.792 79.9971 116.745 79.9982C116.7 80.0005 116.652 80.0022 116.602 80.0034C116.551 80.0045 116.499 80.0051 116.444 80.0051L114.571 80.0051L114.571 79.8376L117.07 79.8376L117.07 80.1042L114.845 80.9895L114.845 80.9997L117.07 81.8918L117.07 82.1516L114.571 82.1516L114.571 81.979L116.465 81.979C116.509 81.979 116.555 81.9795 116.602 81.9807C116.648 81.9818 116.694 81.9829 116.74 81.9841C116.787 81.9864 116.832 81.9886 116.875 81.9909L116.875 81.9807L114.571 81.0595L114.571 80.9194ZM114.571 84.7496L114.571 83.3841L117.07 83.3841L117.07 84.7496L116.911 84.7496L116.911 83.5601L115.964 83.5601L115.964 84.6829L115.805 84.6829L115.805 83.5601L114.73 83.5601L114.73 84.7496L114.571 84.7496ZM114.571 87.662L114.571 87.4826L116.781 86.006L116.781 85.9975C116.719 85.9997 116.657 86.0014 116.593 86.0026C116.53 86.0049 116.465 86.0066 116.398 86.0077C116.332 86.01 116.264 86.0111 116.193 86.0111L114.571 86.0111L114.571 85.8437L117.07 85.8437L117.07 86.0248L114.867 87.4962L114.867 87.5048C114.917 87.5036 114.975 87.5019 115.041 87.4997C115.107 87.4985 115.175 87.4968 115.245 87.4945C115.314 87.4934 115.38 87.4928 115.441 87.4928L117.07 87.4928L117.07 87.662L114.571 87.662ZM114.571 89.5474L114.571 89.3696L116.911 89.3696L116.911 88.5596L117.07 88.5596L117.07 90.3574L116.911 90.3574L116.911 89.5474L114.571 89.5474ZM114.571 94.0939L114.571 92.5302L114.718 92.5302L115.484 93.2651C115.606 93.3824 115.716 93.481 115.814 93.5607C115.913 93.6416 116.012 93.7026 116.111 93.7436C116.21 93.7858 116.321 93.8068 116.444 93.8068C116.605 93.8068 116.73 93.7596 116.819 93.665C116.907 93.5716 116.952 93.4445 116.952 93.2839C116.952 93.1757 116.933 93.0714 116.894 92.9711C116.855 92.872 116.798 92.7752 116.723 92.6806L116.844 92.5849C116.901 92.6544 116.949 92.7273 116.988 92.8037C117.027 92.8811 117.056 92.9603 117.075 93.0412C117.095 93.1221 117.106 93.203 117.106 93.2839C117.106 93.4263 117.078 93.5494 117.024 93.653C116.97 93.7578 116.894 93.8393 116.796 93.8974C116.698 93.9555 116.583 93.9846 116.451 93.9846C116.314 93.9846 116.19 93.9606 116.079 93.9128C115.968 93.8661 115.86 93.7994 115.754 93.7128C115.648 93.6263 115.534 93.5237 115.412 93.4052L114.739 92.7541L114.732 92.7541L114.732 94.0939L114.571 94.0939ZM115.827 96.6561C115.619 96.6561 115.434 96.6401 115.274 96.6082C115.113 96.5763 114.978 96.5279 114.869 96.4629C114.759 96.398 114.677 96.3154 114.621 96.2151C114.565 96.1149 114.537 95.9964 114.537 95.8597C114.537 95.6865 114.586 95.5407 114.682 95.4222C114.779 95.3037 114.923 95.2137 115.115 95.1521C115.306 95.0918 115.544 95.0616 115.827 95.0616C116.08 95.0616 116.303 95.0872 116.496 95.1385C116.688 95.1909 116.839 95.2758 116.947 95.3931C117.055 95.5105 117.109 95.6665 117.109 95.8614C117.109 96.0551 117.056 96.21 116.95 96.3262C116.844 96.4436 116.695 96.5279 116.502 96.5791C116.311 96.6304 116.086 96.6561 115.827 96.6561ZM115.827 95.2359C115.571 95.2359 115.359 95.2581 115.19 95.3025C115.022 95.347 114.897 95.4153 114.814 95.5076C114.731 95.5999 114.689 95.7172 114.689 95.8597C114.689 96.0066 114.731 96.1257 114.814 96.2168C114.897 96.308 115.023 96.3746 115.192 96.4168C115.36 96.4601 115.572 96.4817 115.827 96.4817C116.062 96.4817 116.264 96.4629 116.432 96.4253C116.601 96.3889 116.73 96.3256 116.82 96.2356C116.91 96.1456 116.955 96.0209 116.955 95.8614C116.955 95.7053 116.909 95.5817 116.817 95.4905C116.725 95.3994 116.594 95.3339 116.426 95.294C116.257 95.2553 116.058 95.2359 115.827 95.2359ZM114.571 99.143L114.571 97.5792L114.718 97.5792L115.484 98.3141C115.606 98.4315 115.716 98.53 115.814 98.6098C115.913 98.6907 116.012 98.7516 116.111 98.7926C116.21 98.8348 116.321 98.8559 116.444 98.8559C116.605 98.8559 116.73 98.8086 116.819 98.714C116.907 98.6206 116.952 98.4936 116.952 98.3329C116.952 98.2247 116.933 98.1204 116.894 98.0202C116.855 97.921 116.798 97.8242 116.723 97.7296L116.844 97.6339C116.901 97.7034 116.949 97.7763 116.988 97.8527C117.027 97.9302 117.056 98.0093 117.075 98.0902C117.095 98.1711 117.106 98.252 117.106 98.3329C117.106 98.4753 117.078 98.5984 117.024 98.702C116.97 98.8069 116.894 98.8883 116.796 98.9464C116.698 99.0045 116.583 99.0336 116.451 99.0336C116.314 99.0336 116.19 99.0097 116.079 98.9618C115.968 98.9151 115.86 98.8485 115.754 98.7619C115.648 98.6753 115.534 98.5727 115.412 98.4542L114.739 97.8031L114.732 97.8031L114.732 99.143L114.571 99.143ZM115.209 101.861L115.209 101.43L114.571 101.43L114.571 101.261L115.209 101.261L115.209 99.9927L115.345 99.9927L117.083 101.249L117.083 101.43L115.368 101.43L115.368 101.861L115.209 101.861ZM115.368 101.261L116.328 101.261C116.399 101.261 116.46 101.261 116.511 101.261C116.562 101.262 116.608 101.263 116.649 101.264C116.692 101.265 116.732 101.266 116.771 101.268C116.809 101.269 116.849 101.27 116.89 101.271L116.89 101.261C116.836 101.229 116.785 101.199 116.738 101.17C116.693 101.143 116.641 101.108 116.583 101.064L115.368 100.182L115.368 101.261ZM115.438 104.009L115.597 104.009L115.597 104.857L115.438 104.857L115.438 104.009ZM114.571 108.713L114.571 107.15L114.718 107.15L115.484 107.884C115.606 108.002 115.716 108.1 115.814 108.18C115.913 108.261 116.012 108.322 116.111 108.363C116.21 108.405 116.321 108.426 116.444 108.426C116.605 108.426 116.73 108.379 116.819 108.284C116.907 108.191 116.952 108.064 116.952 107.903C116.952 107.795 116.933 107.691 116.894 107.59C116.855 107.491 116.798 107.395 116.723 107.3L116.844 107.204C116.901 107.274 116.949 107.347 116.988 107.423C117.027 107.5 117.056 107.58 117.075 107.661C117.095 107.741 117.106 107.822 117.106 107.903C117.106 108.046 117.078 108.169 117.024 108.272C116.97 108.377 116.894 108.459 116.796 108.517C116.698 108.575 116.583 108.604 116.451 108.604C116.314 108.604 116.19 108.58 116.079 108.532C115.968 108.485 115.86 108.419 115.754 108.332C115.648 108.246 115.534 108.143 115.412 108.025L114.739 107.373L114.732 107.373L114.732 108.713L114.571 108.713ZM115.827 111.275C115.619 111.275 115.434 111.259 115.274 111.228C115.113 111.196 114.978 111.147 114.869 111.082C114.759 111.017 114.677 110.935 114.621 110.834C114.565 110.734 114.537 110.616 114.537 110.479C114.537 110.306 114.586 110.16 114.682 110.042C114.779 109.923 114.923 109.833 115.115 109.771C115.306 109.711 115.544 109.681 115.827 109.681C116.08 109.681 116.303 109.707 116.496 109.758C116.688 109.81 116.839 109.895 116.947 110.012C117.055 110.13 117.109 110.286 117.109 110.481C117.109 110.674 117.056 110.829 116.95 110.946C116.844 111.063 116.695 111.147 116.502 111.198C116.311 111.25 116.086 111.275 115.827 111.275ZM115.827 109.855C115.571 109.855 115.359 109.877 115.19 109.922C115.022 109.966 114.897 110.035 114.814 110.127C114.731 110.219 114.689 110.337 114.689 110.479C114.689 110.626 114.731 110.745 114.814 110.836C114.897 110.927 115.023 110.994 115.192 111.036C115.36 111.079 115.572 111.101 115.827 111.101C116.062 111.101 116.264 111.082 116.432 111.045C116.601 111.008 116.73 110.945 116.82 110.855C116.91 110.765 116.955 110.64 116.955 110.481C116.955 110.325 116.909 110.201 116.817 110.11C116.725 110.019 116.594 109.953 116.426 109.913C116.257 109.875 116.058 109.855 115.827 109.855ZM114.571 113.762L114.571 112.199L114.718 112.199L115.484 112.933C115.606 113.051 115.716 113.149 115.814 113.229C115.913 113.31 116.012 113.371 116.111 113.412C116.21 113.454 116.321 113.475 116.444 113.475C116.605 113.475 116.73 113.428 116.819 113.333C116.907 113.24 116.952 113.113 116.952 112.952C116.952 112.844 116.933 112.74 116.894 112.64C116.855 112.54 116.798 112.444 116.723 112.349L116.844 112.253C116.901 112.323 116.949 112.396 116.988 112.472C117.027 112.549 117.056 112.629 117.075 112.71C117.095 112.79 117.106 112.871 117.106 112.952C117.106 113.095 117.078 113.218 117.024 113.321C116.97 113.426 116.894 113.508 116.796 113.566C116.698 113.624 116.583 113.653 116.451 113.653C116.314 113.653 116.19 113.629 116.079 113.581C115.968 113.534 115.86 113.468 115.754 113.381C115.648 113.295 115.534 113.192 115.412 113.074L114.739 112.422L114.732 112.422L114.732 113.762L114.571 113.762ZM116.077 115.49C116.077 115.659 116.048 115.804 115.991 115.926C115.934 116.049 115.851 116.144 115.742 116.21C115.634 116.277 115.501 116.311 115.344 116.311C115.177 116.311 115.034 116.274 114.913 116.2C114.792 116.126 114.699 116.021 114.635 115.885C114.57 115.751 114.537 115.592 114.537 115.408C114.537 115.276 114.55 115.156 114.575 115.048C114.601 114.941 114.636 114.85 114.679 114.776L114.853 114.776C114.805 114.856 114.766 114.951 114.735 115.061C114.705 115.173 114.689 115.289 114.689 115.41C114.689 115.556 114.714 115.683 114.763 115.791C114.813 115.899 114.886 115.983 114.981 116.042C115.077 116.103 115.194 116.133 115.333 116.133C115.519 116.133 115.664 116.077 115.768 115.964C115.872 115.851 115.925 115.681 115.925 115.453C115.925 115.359 115.918 115.27 115.904 115.185C115.892 115.1 115.876 115.022 115.856 114.949L115.927 114.85L117.07 114.95L117.07 116.15L116.909 116.15L116.909 115.099L116.019 115.022C116.031 115.073 116.044 115.138 116.056 115.215C116.07 115.294 116.077 115.386 116.077 115.49Z" fill="#282828"/>
<path d="M114.571 135.78L117.07 135.78L117.07 135.956L114.732 135.956L114.732 137.146L114.571 137.146L114.571 135.78ZM114.571 139.664L115.455 139.323L115.455 138.274L114.571 137.927L114.571 137.748L117.078 138.73L117.078 138.891L114.571 139.848L114.571 139.664ZM115.614 139.267L116.55 138.922C116.574 138.913 116.605 138.901 116.643 138.888C116.68 138.875 116.72 138.861 116.762 138.847C116.804 138.833 116.844 138.819 116.882 138.806C116.842 138.794 116.802 138.782 116.762 138.768C116.722 138.754 116.684 138.741 116.646 138.729C116.61 138.716 116.576 138.704 116.547 138.693L115.614 138.334L115.614 139.267ZM117.07 142.775C117.07 143.072 117.013 143.295 116.899 143.443C116.785 143.591 116.608 143.665 116.367 143.665C116.244 143.665 116.135 143.645 116.039 143.605C115.945 143.566 115.865 143.508 115.8 143.429C115.735 143.35 115.686 143.252 115.653 143.133C115.62 143.016 115.604 142.879 115.604 142.722L115.604 142.337L114.571 142.337L114.571 142.161L117.07 142.161L117.07 142.775ZM116.914 142.756L116.914 142.337L115.759 142.337L115.759 142.704C115.759 142.866 115.777 143.005 115.814 143.121C115.851 143.238 115.914 143.327 116.002 143.39C116.089 143.452 116.209 143.484 116.361 143.484C116.553 143.484 116.693 143.425 116.781 143.306C116.87 143.188 116.914 143.004 116.914 142.756ZM115.824 146.835C115.634 146.835 115.46 146.812 115.303 146.765C115.146 146.719 115.01 146.649 114.896 146.555C114.782 146.462 114.694 146.345 114.631 146.205C114.568 146.066 114.537 145.903 114.537 145.718C114.537 145.531 114.568 145.367 114.631 145.227C114.694 145.087 114.782 144.97 114.896 144.877C115.011 144.785 115.147 144.715 115.304 144.668C115.463 144.622 115.637 144.598 115.827 144.598C116.08 144.598 116.303 144.641 116.496 144.727C116.688 144.813 116.839 144.94 116.947 145.108C117.055 145.276 117.109 145.484 117.109 145.731C117.109 145.968 117.057 146.169 116.954 146.333C116.851 146.498 116.704 146.623 116.511 146.707C116.32 146.793 116.091 146.835 115.824 146.835ZM115.826 144.783C115.602 144.783 115.405 144.817 115.234 144.884C115.065 144.951 114.932 145.054 114.836 145.193C114.74 145.332 114.693 145.508 114.693 145.719C114.693 145.934 114.74 146.11 114.834 146.248C114.929 146.385 115.061 146.487 115.231 146.553C115.401 146.62 115.598 146.653 115.824 146.653C116.181 146.653 116.457 146.575 116.655 146.418C116.852 146.263 116.95 146.034 116.95 145.731C116.95 145.518 116.903 145.341 116.808 145.2C116.714 145.06 116.582 144.955 116.414 144.885C116.245 144.817 116.049 144.783 115.826 144.783ZM115.216 149.31C115.066 149.31 114.941 149.273 114.84 149.198C114.739 149.122 114.664 149.02 114.612 148.892C114.562 148.763 114.537 148.617 114.537 148.454C114.537 148.353 114.542 148.26 114.552 148.177C114.562 148.095 114.574 148.021 114.59 147.953C114.606 147.887 114.624 147.827 114.645 147.772L114.821 147.772C114.787 147.861 114.756 147.964 114.73 148.08C114.705 148.197 114.693 148.325 114.693 148.463C114.693 148.593 114.711 148.708 114.749 148.808C114.787 148.909 114.844 148.989 114.92 149.047C114.996 149.105 115.093 149.134 115.209 149.134C115.311 149.134 115.395 149.11 115.46 149.061C115.526 149.013 115.582 148.941 115.629 148.844C115.677 148.747 115.725 148.625 115.774 148.478C115.81 148.376 115.847 148.282 115.885 148.198C115.925 148.115 115.971 148.043 116.022 147.984C116.075 147.925 116.137 147.879 116.21 147.847C116.284 147.817 116.371 147.801 116.472 147.801C116.61 147.801 116.725 147.836 116.819 147.906C116.913 147.976 116.984 148.071 117.032 148.191C117.081 148.312 117.106 148.447 117.106 148.598C117.106 148.717 117.094 148.831 117.072 148.938C117.05 149.046 117.017 149.15 116.972 149.251L116.82 149.189C116.864 149.089 116.896 148.989 116.916 148.888C116.937 148.788 116.947 148.689 116.947 148.591C116.947 148.474 116.929 148.369 116.894 148.276C116.86 148.185 116.808 148.113 116.738 148.059C116.669 148.006 116.581 147.979 116.475 147.979C116.366 147.979 116.277 148.004 116.21 148.053C116.143 148.103 116.087 148.173 116.043 148.264C115.998 148.357 115.955 148.466 115.913 148.591C115.863 148.739 115.81 148.867 115.754 148.974C115.699 149.081 115.63 149.163 115.545 149.222C115.461 149.281 115.351 149.31 115.216 149.31ZM114.571 151.023L114.571 150.845L116.911 150.845L116.911 150.035L117.07 150.035L117.07 151.833L116.911 151.833L116.911 151.023L114.571 151.023ZM114.571 154.096L114.571 152.731L117.07 152.731L117.07 154.096L116.911 154.096L116.911 152.907L115.964 152.907L115.964 154.03L115.805 154.03L115.805 152.907L114.73 152.907L114.73 154.096L114.571 154.096Z" fill="#282828"/>
</svg>
